# xmcd
#
# Track frame offsets:
#	183
#	13195
#	26495
#	39565
#	52683
#	70050
#	83808
#	97858
#	113838
#	129413
#	143200
#	157093
#	170970
#	187303
#
# Disc length: 2667 seconds
#
# Revision: 1
# Processed by: cddbd v1.5PL3 Copyright (c) Steve Scherf et al.
# Submitted via: audiograbber 1.83.01
#
DISCID=bc0a690e
DTITLE=Tom Astor - Mein Laster wartet schon
DYEAR=1900
DGENRE=
TTITLE0=Mein Laster wartet schon
TTITLE1=Buchstabiere LKW
TTITLE2=Er ist ein Gottesmann für Trucker (Pater Hofer Song)
TTITLE3=Ein richtiger Mann ist immer unterwegs
TTITLE4=Ich hab' noch Straßenstaub an meinen Schuhen
TTITLE5=Six Days On The Road
TTITLE6=Rollende Giganten
TTITLE7=Mein Brummi
TTITLE8=Und in Hamburg sitzt Gaby
TTITLE9=Highway Dreams (Instrumental Tom Astor Band)
TTITLE10=Ausgelaugt (und kaputt vom fahr'n)
TTITLE11=Hör mal zu, Herr Minister (ich brauch `nen Job)
TTITLE12=Angie
TTITLE13=Nur auf der Straße
EXTD=
EXTT0=
EXTT1=
EXTT2=
EXTT3=
EXTT4=
EXTT5=
EXTT6=
EXTT7=
EXTT8=
EXTT9=
EXTT10=
EXTT11=
EXTT12=
EXTT13=
PLAYORDER=
